<svg id="visual" viewBox="0 0 960 540" width="960" height="540" xmlns="http://www.w3.org/2000/svg" xmlns:xlink="http://www.w3.org/1999/xlink" version="1.1"><rect x="0" y="0" width="960" height="540" fill="#001220"></rect><defs><linearGradient id="grad1_0" x1="43.8%" y1="0%" x2="100%" y2="100%"><stop offset="14.444444444444446%" stop-color="#fbae3c" stop-opacity="1"></stop><stop offset="85.55555555555554%" stop-color="#fbae3c" stop-opacity="1"></stop></linearGradient></defs><defs><linearGradient id="grad1_1" x1="43.8%" y1="0%" x2="100%" y2="100%"><stop offset="14.444444444444446%" stop-color="#fbae3c" stop-opacity="1"></stop><stop offset="85.55555555555554%" stop-color="#96446e" stop-opacity="1"></stop></linearGradient></defs><defs><linearGradient id="grad1_2" x1="43.8%" y1="0%" x2="100%" y2="100%"><stop offset="14.444444444444446%" stop-color="#001220" stop-opacity="1"></stop><stop offset="85.55555555555554%" stop-color="#96446e" stop-opacity="1"></stop></linearGradient></defs><defs><linearGradient id="grad2_0" x1="0%" y1="0%" x2="56.3%" y2="100%"><stop offset="14.444444444444446%" stop-color="#fbae3c" stop-opacity="1"></stop><stop offset="85.55555555555554%" stop-color="#fbae3c" stop-opacity="1"></stop></linearGradient></defs><defs><linearGradient id="grad2_1" x1="0%" y1="0%" x2="56.3%" y2="100%"><stop offset="14.444444444444446%" stop-color="#96446e" stop-opacity="1"></stop><stop offset="85.55555555555554%" stop-color="#fbae3c" stop-opacity="1"></stop></linearGradient></defs><defs><linearGradient id="grad2_2" x1="0%" y1="0%" x2="56.3%" y2="100%"><stop offset="14.444444444444446%" stop-color="#96446e" stop-opacity="1"></stop><stop offset="85.55555555555554%" stop-color="#001220" stop-opacity="1"></stop></linearGradient></defs><g transform="translate(960, 0)"><path d="M0 324C-32.8 315.5 -65.7 307 -95.8 294.8C-125.9 282.7 -153.3 266.9 -181.6 250C-209.9 233 -239.1 214.9 -261.3 189.9C-283.5 164.8 -298.8 132.9 -308.1 100.1C-317.4 67.3 -320.7 33.7 -324 0L0 0Z" fill="#3d3056"></path><path d="M0 216C-21.9 210.3 -43.8 204.6 -63.9 196.6C-83.9 188.5 -102.2 178 -121.1 166.7C-139.9 155.4 -159.4 143.3 -174.2 126.6C-189 109.9 -199.2 88.6 -205.4 66.7C-211.6 44.9 -213.8 22.4 -216 0L0 0Z" fill="#e1685e"></path><path d="M0 108C-10.9 105.2 -21.9 102.3 -31.9 98.3C-42 94.2 -51.1 89 -60.5 83.3C-70 77.7 -79.7 71.6 -87.1 63.3C-94.5 54.9 -99.6 44.3 -102.7 33.4C-105.8 22.4 -106.9 11.2 -108 0L0 0Z" fill="#fbae3c"></path></g><g transform="translate(0, 540)"><path d="M0 -324C34.1 -321.2 68.2 -318.4 100.1 -308.1C132.1 -297.9 161.8 -280.2 188.1 -258.9C214.4 -237.6 237.2 -212.7 254.8 -185.2C272.5 -157.6 285.1 -127.4 295.8 -96.1C306.5 -64.8 315.2 -32.4 324 0L0 0Z" fill="#3d3056"></path><path d="M0 -216C22.7 -214.1 45.5 -212.3 66.7 -205.4C88 -198.6 107.9 -186.8 125.4 -172.6C142.9 -158.4 158.1 -141.8 169.9 -123.4C181.7 -105.1 190.1 -84.9 197.2 -64.1C204.3 -43.2 210.2 -21.6 216 0L0 0Z" fill="#e1685e"></path><path d="M0 -108C11.4 -107.1 22.7 -106.1 33.4 -102.7C44 -99.3 53.9 -93.4 62.7 -86.3C71.5 -79.2 79.1 -70.9 84.9 -61.7C90.8 -52.5 95 -42.5 98.6 -32C102.2 -21.6 105.1 -10.8 108 0L0 0Z" fill="#fbae3c"></path></g></svg>